<svg xmlns="http://www.w3.org/2000/svg" viewBox="0 0 121 121" role="img" aria-labelledby="title">
  <title>Reddit</title>
  <circle cx="60.5" cy="60.5" r="54" fill="#ff4500"/>
  <path fill="#fff" d="M91.9 59.4c0-6.2-5-11.2-11.2-11.2-3 0-5.7 1.2-7.7 3.1-3.7-2.4-8.2-3.9-13.1-4.2l2.2-10.5 7.3 1.6c.4 4.3 4 7.7 8.4 7.7 4.7 0 8.5-3.8 8.5-8.5s-3.8-8.5-8.5-8.5c-3.2 0-6 1.8-7.4 4.4l-10.2-2.2c-1.5-.3-3 .6-3.3 2.1l-3 14c-5 .4-9.6 1.8-13.4 4.3-2-2-4.8-3.2-7.9-3.2-6.2 0-11.2 5-11.2 11.2 0 4.5 2.7 8.4 6.5 10.2-.1.8-.2 1.6-.2 2.5 0 13.7 16.6 24.9 37 24.9s37-11.2 37-24.9c0-.9-.1-1.9-.2-2.7 3.8-1.8 6.4-5.6 6.4-10.1Z"/>
  <circle cx="45.8" cy="67" r="6.9" fill="#ff4500"/>
  <circle cx="75.2" cy="67" r="6.9" fill="#ff4500"/>
  <path fill="none" stroke="#ff4500" stroke-linecap="round" stroke-width="5.5" d="M48.2 80.8c6.7 5.4 18.1 5.4 24.7 0"/>
</svg>
